<?xml version="1.0" encoding="utf-8"?>
<!-- Generator: Adobe Illustrator 15.1.0, SVG Export Plug-In . SVG Version: 6.00 Build 0)  -->
<!DOCTYPE svg PUBLIC "-//W3C//DTD SVG 1.1//EN" "http://www.w3.org/Graphics/SVG/1.1/DTD/svg11.dtd">
<svg version="1.1" id="Layer_1" xmlns="http://www.w3.org/2000/svg" xmlns:xlink="http://www.w3.org/1999/xlink" x="0px" y="0px"
	 width="1000px" height="1000px" viewBox="0 0 1000 1000" enable-background="new 0 0 1000 1000" xml:space="preserve">
<path fill-rule="evenodd" clip-rule="evenodd" fill="#333" d="M622.887,727.82c-5.197,6.045-11.43,11.32-18.75,15.647
	c-44.923,26.573-122.184,24.453-225.333-24.028C275.65,670.961,186.567,589.978,142.616,513.262
	c-32.194-56.182-36.739-106.873-19.116-139.495c-33.976,179.41,339.503,443.265,498.705,354.498L622.887,727.82L622.887,727.82z
	 M909.097,736.348l-109.423,74.401c-20.114-69.865-79.498-97.319-136.016-95.757c-17.875,0.49-30.389,3.693-42.269,7.575
	c-27.121,8.849-42.274,13.991-71.373,14.613c-81.933-0.891-164.797-40.966-229.246-82.908
	c-65.753-44.401-126.304-100.259-165.51-170.678c-20.901-39.968-39.689-95.414-11.84-139.24l38.111-54.75
	c-3.339,39.768,13.189,83.29,30.728,113.905c51.49,89.862,149.62,168.082,241.895,211.446
	c51.783,24.34,129.337,51.452,194.099,39.366c30.107-5.625,47.792-12.932,66.76-16.381
	C786.618,624.948,883.017,665.992,909.097,736.348L909.097,736.348z M456.693,474.469c-7.155-0.065-17.047-5.887-22.056-12.957
	c-5.017-7.052-3.265-12.709,3.901-12.626c7.169,0.077,17.051,5.865,22.079,12.937C465.617,468.889,463.879,474.558,456.693,474.469
	L456.693,474.469z M522.879,473.128c2.941,6.783-1.377,10.704-9.615,8.771c-8.232-1.941-17.309-9.031-20.243-15.819
	c-2.939-6.784,1.358-10.731,9.603-8.778C510.865,459.246,519.926,466.328,522.879,473.128L522.879,473.128z M497.521,412.843
	c8.757,4.179,15.767,12.183,15.678,17.888c-0.073,5.711-7.251,6.94-16.004,2.773c-8.747-4.174-15.78-12.168-15.686-17.89
	C481.603,409.909,488.773,408.681,497.521,412.843L497.521,412.843z M417.772,375.129c2.833-4.104,11.845-2.773,20.106,2.978
	c8.282,5.753,12.699,13.737,9.872,17.847c-2.833,4.103-11.839,2.766-20.126-2.983C419.351,387.227,414.934,379.236,417.772,375.129
	L417.772,375.129z M393.583,415.693c-7.251-6.637-9.162-13.993-4.251-16.452c4.9-2.458,14.753,0.936,21.998,7.553
	c7.245,6.63,9.154,13.987,4.264,16.453C410.68,425.694,400.824,422.319,393.583,415.693L393.583,415.693z M559.171,609.928
	c-31.048-4.271-68.936-30.245-84.654-58.004c-15.713-27.768-3.296-46.793,27.744-42.517c31.031,4.257,68.915,30.231,84.638,58.006
	C602.602,595.162,590.176,614.185,559.171,609.928L559.171,609.928z M677.925,502.911c7.211,25.739-14.535,37.474-48.551,26.221
	c-34.034-11.266-67.466-41.243-74.68-66.975c-7.216-25.729,14.511-37.473,48.548-26.206
	C637.258,447.204,670.705,477.195,677.925,502.911L677.925,502.911z M486.511,296.851c34.495,19.181,58.806,51.358,54.285,71.87
	c-4.501,20.543-36.129,21.623-70.599,2.455c-34.5-19.17-58.794-51.35-54.296-71.864C420.417,278.778,452.025,277.69,486.511,296.851
	L486.511,296.851z M255.595,268.83c15.586-13.087,53.417-3.575,84.53,21.275c31.093,24.843,43.676,55.591,28.095,68.686
	c-15.565,13.104-53.405,3.574-84.524-21.271C252.601,312.68,240.028,281.922,255.595,268.83L255.595,268.83z M298.189,460.125
	c-24.649-27.69-24.759-53.91-0.226-58.582c24.536-4.658,64.418,14.021,89.066,41.714c24.659,27.708,24.766,53.933,0.233,58.585
	C362.731,506.494,322.859,487.818,298.189,460.125L298.189,460.125z M427.663,414.762c1.167-10.234,15.384-11.671,31.812-3.19
	c16.403,8.46,28.791,23.624,27.641,33.853c-1.159,10.24-15.384,11.669-31.79,3.211C438.89,440.166,426.522,424.996,427.663,414.762
	L427.663,414.762z M204.598,254.054c48.046-69.022,200.12-46.237,339.673,50.902c139.535,97.127,213.706,231.824,165.662,300.848
	c-48.046,69.024-200.117,46.237-339.652-50.89C230.728,457.774,156.553,323.078,204.598,254.054L204.598,254.054z"/>
</svg>
